<?xml version="1.0" encoding="UTF-8"?>
<svg xmlns="http://www.w3.org/2000/svg" width="800" height="800" version="1.1" viewBox="0 0 800 800">
  <!-- Generator: Adobe Illustrator 30.0.0, SVG Export Plug-In . SVG Version: 2.1.1 Build 123)  -->
  <defs>
    <style>
      .st0 {
        fill: #422c18;
      }

      .st1 {
        fill: #e28d3d;
      }

      .st2 {
        fill: #da8335;
      }

      .st3 {
        fill: #df8a39;
      }

      .st4 {
        fill: #efb04c;
      }

      .st5 {
        fill: #bd6e2f;
      }
    </style>
  </defs>
  <g id="Layer_3">
    <path class="st0" d="M456.2,51c68.5,27.2,142.8,69,210.1,102.5,44.4,22.1,74.2,47.1,79.3,102.6v254c-3.8,72.7-77.8,102.4-132.3,133.7-35.8,20.5-72.7,41.6-109,61-33.9,18.1-60,32.1-100.2,29.8-42.1-2.4-94.6-34.1-132.5-53.5-30.8-15.7-61.6-31.7-92-48-59.8-32-114.9-49.9-120-128,3.5-78.4-4.8-161,0-239,2.4-39.4,18.4-75.2,52.3-96.7,71.4-36.6,142.4-76,215.4-109.6,46.9-21.6,79.2-28.4,129-8.7Z"/>
    <path class="st0" d="M394.4,70.9c-33.7,2.6-60.7,22-89.4,36.6-45.2,22.9-92.7,43.7-137,68s-32.4,17.6-35.4,22.6,1.6,5.4,4.7,7.4c16.8,10.2,48.4,26,66.6,33.4,4.4,1.8,8.1,3.8,13.1,2.7,77-38.8,153.5-79.7,228.3-122.7,5.8-3.4,26.9-14.3,29.9-18.1s1.9-3.9-1.2-5.9c-27.2-12.9-47.9-26.3-79.6-23.8ZM522.2,117c-4.1-1.7-8-2.2-12.3-.6-85.3,49-172.9,93.9-260.1,139.4-.5,1.5-.4,3.4.4,4.8s35.2,19.3,39.8,21.2c12.7,5.1,15.4,1.9,26.7-3.7,41.7-20.3,85.8-44.9,127-67,40.6-21.7,80.6-44.5,120.5-67.5.8-1.4,1.1-4-.1-5.1-12.2-5.8-23.9-12.9-36-18.8s-4.5-2.1-5.8-2.7ZM598.4,157.8c-85.6,49.2-172.6,96-261.1,140-4.7,2.8-2.5,5.2,1,7.7,18.9,13.3,67.3,37.1,89.8,38.2,29.6,1.4,69.9-23.9,96.2-37.8,45.6-24.1,90.5-49.5,135.7-74.3s31.4-15.2,32.2-16.8c1.5-3.1-1.3-6.4-3.1-8.9-9.2-12.3-51.6-31.8-67.1-38.9-4.6-2.1-19.8-9.9-23.6-8.9ZM111.3,230.8c-11,2.5-16.5,22.8-17.6,32.4s.6,12.7-1.2,18.8c3.7,71.9-3.7,148.7,1.1,220,2.3,35,16,51.7,44.1,69.9,49.2,31.9,105.5,56.9,157.8,83.2,22.9,11.5,49.2,28.6,72.2,37.8s27.5,7.3,38-7c10.9-14.8,6.6-59.5,7-79,.6-37.9,1.1-76.1,1-113.9s2.2-61.3,0-89.1c-2-27.2-25.5-38.4-47-50-68-36.7-139.2-67.1-208.1-101.9-11.2-5.7-23.2-14.5-34.8-19.2s-7.5-3.2-12.5-2.1ZM699.4,245.8c-2.9.5-10.3,5-13.4,6.6-27.7,14.5-54.2,31.4-81.7,46.3-38.5,21-78.4,39.8-116.3,61.7-24.1,13.9-38.5,27.3-40.4,56.6-3.4,52.5.6,110.8,0,164.1-.2,20.5-1.8,41.5-2.1,61.9-.1,8-1.2,35.1,1.6,40.5,6.2,11.7,25.2,1.7,33.4-2.4,20.1-9.9,38.8-22.8,58.3-33.7,27.9-15.5,56.4-30,84-46,37.5-21.8,89.1-44.6,90.7-94.3-3.6-77.8,4.7-159.8,0-237.1-.6-9.5-1.1-26.5-14.3-24.2Z"/>
    <path class="st2" d="M111.3,230.8c17.4-1.1,32,14.7,47.3,21.3,48.3,32,257.6,101,255.1,151.9,1.7,66.9-.8,135.8-1.1,203-.3,19.5,3.9,64.2-7,79-10.4,14.2-23.3,12.9-38,7C54,520,94.7,627.5,92.6,282c1.8-16.3.4-43.7,18.7-51.2Z"/>
    <path class="st5" d="M699.4,245.8c32.8-9.9,5.9,227.7,14.3,261.3-1.7,49.6-53.2,72.5-90.7,94.3-47.7,26.1-95.1,52.7-142.3,79.7-41.2,22.2-35.5-6-35.1-38.1,11.6-346.7-58.1-213.3,253.8-397.2Z"/>
    <path class="st0" d="M609.6,513.6v-82.5c-4.2-19.3-26.7-10.7-31,4-6.7,21.9,0,74.3-3.4,93.6-3.6,5.2-14.7-5.7-17.9-7.3-13.1-6.6-28.3,13.2-22.1,24.1,2.5,4.5,18.6,14.1,23.9,18.1,4.3,3.3,8.7,8.6,13.2,11.8,25.6,15.3,26.1,5.5,39.7-15.9,9.6-15.1,25-37.2,32.4-52.6,5-10.5.2-27.5-13.1-24.1s-15,25.5-21.7,30.7Z"/>
    <path class="st1" d="M598.4,157.8c3.8-1,19,6.8,23.6,8.9,15.5,7.2,57.9,26.7,67.1,38.9,1.8,2.5,4.6,5.8,3.1,8.9s-27.9,14.5-32.2,16.8c-45.2,24.9-90.1,50.3-135.7,74.3-26.3,13.9-66.5,39.2-96.2,37.8-22.5-1.1-70.9-24.8-89.8-38.2-3.5-2.5-5.7-4.8-1-7.7,88.5-44,175.5-90.7,261.1-140Z"/>
    <path class="st3" d="M394.4,70.9c31.7-2.5,52.3,10.9,79.6,23.8,3.1,2,3.4,3,1.2,5.9-82.6,51-171.6,96.4-258.1,140.9-24.9-2.9-57.5-24.7-79.7-36.1-3.2-1.9-7.1-3.4-4.7-7.4,51-37.5,116.3-60.6,172.4-90.6,28.8-14.6,55.8-33.9,89.4-36.6Z"/>
    <path class="st4" d="M509.9,116.3c6.6-2.6,12.1.4,18.1,3.3,12.1,5.9,23.8,13,36,18.8,1.3,1.1.9,3.7.1,5.1-80.9,46.6-164.2,92.5-247.5,134.5-11.3,5.5-14,8.8-26.7,3.7-5.6-3.8-45.3-18.6-40.2-26L509.9,116.3Z"/>
  </g>
  <g id="Layer_4">
    <g>
      <g>
        <path d="M155.8,495.5l-.8-.4-2.4,11.7-22.2-11-.2-176.4,28.2,13.6v45.7c0,0-.7,20-.7,20,10-4.1,22.3-4.4,34.7,1.6,30.1,14.6,47.5,47.8,47.5,85.8,0,42.4-24.5,54.7-51.2,41.5-11-5.4-22.7-16.9-32.8-32.1ZM210.9,472.4c0-24.6-7.9-43-26.2-51.9s-17.1-3.8-26.2,1v57.2c8.5,11.7,17.2,18.7,24.2,22.1,16.1,7.9,28.3-.5,28.2-28.4Z"/>
        <path d="M250.6,390.8l28.4,13.7v74.9c.1,0,.9.4.9.4l56.8-47.4,31.5,15.3-49.1,40.7,57.8,129.2-31.3-15.5-43.5-99-23,18.2v48.1c0,0-28.3-14-28.3-14l-.3-164.6Z"/>
      </g>
      <g>
        <path class="st0" d="M155.8,495.5l-.8-.4-2.4,11.7-22.2-11-.2-176.4,28.2,13.6v45.7c0,0-.7,20-.7,20,10-4.1,22.3-4.4,34.7,1.6,30.1,14.6,47.5,47.8,47.5,85.8,0,42.4-24.5,54.7-51.2,41.5-11-5.4-22.7-16.9-32.8-32.1ZM210.9,472.4c0-24.6-7.9-43-26.2-51.9s-17.1-3.8-26.2,1v57.2c8.5,11.7,17.2,18.7,24.2,22.1,16.1,7.9,28.3-.5,28.2-28.4Z"/>
        <path class="st0" d="M250.6,390.8l28.4,13.7v74.9c.1,0,.9.4.9.4l56.8-47.4,31.5,15.3-49.1,40.7,57.8,129.2-31.3-15.5-43.5-99-23,18.2v48.1c0,0-28.3-14-28.3-14l-.3-164.6Z"/>
      </g>
    </g>
  </g>
</svg>